<?xml version="1.0" encoding="utf-8"?>
<!-- Generator: Adobe Illustrator 16.0.1, SVG Export Plug-In . SVG Version: 6.00 Build 0)  -->
<!DOCTYPE svg PUBLIC "-//W3C//DTD SVG 1.1//EN" "http://www.w3.org/Graphics/SVG/1.1/DTD/svg11.dtd">
<svg version="1.1" id="Слой_1" xmlns="http://www.w3.org/2000/svg" xmlns:xlink="http://www.w3.org/1999/xlink" x="0px" y="0px"
	 width="1920px" height="955px" viewBox="0 0 1920 955" enable-background="new 0 0 1920 955" xml:space="preserve">
<image overflow="visible" width="1920" height="955" xlink:href="C:\Users\Serhiy\Desktop\M\2.jpg" >
</image>
<polygon opacity="0.5" fill="#F7AD2B" points="761.334,400 775.334,395.333 814.667,392.333 846,390.667 894.333,390.667 
	958.333,390.667 1031.334,390.667 1077.334,395.333 1079,400 1069.334,426.667 1069.334,432.667 1079,432.667 1079,429.333 
	1086.334,429.333 1086.334,431.667 1097.334,432.667 1097.334,458.333 1035.334,453.667 985.334,455 984.667,448.333 960,445.667 
	908,445 848.333,445.333 787,446.667 755,449 732,451.333 719.333,453 713.667,456 725.667,435 737.667,430 752.667,427.667 
	776,426.333 771.667,415.667 "/>
<text transform="matrix(1 0 0 1 467.312 480.4795)" fill="#EEB203" font-family="'ArialMT'" font-size="12">WHAT WE DO?</text>
<g>
	<circle fill="none" stroke="#EEB203" stroke-width="3" stroke-miterlimit="10" cx="512.979" cy="445.479" r="4.833"/>
	<path fill="none" stroke="#EEB203" stroke-miterlimit="10" d="M733.812,405.146c0,0-40.344-69.199-136.573-50.95
		c-76.739,14.553-84.261,86.311-84.261,86.311"/>
</g>
</svg>
